<?xml version="1.0" encoding="utf-8"?>
<!-- Generator: Adobe Illustrator 27.2.0, SVG Export Plug-In . SVG Version: 6.00 Build 0)  -->
<svg version="1.1" id="Layer_2" xmlns="http://www.w3.org/2000/svg" xmlns:xlink="http://www.w3.org/1999/xlink" x="0px" y="0px"
	 viewBox="0 0 319.9 42" style="enable-background:new 0 0 319.9 42;" xml:space="preserve">
<style type="text/css">
	.st0{fill:#404040;}
</style>
<g>
	<polygon class="st0" points="319.5,10 316.4,10 316.4,31.8 319.9,31.8 319.9,10 	"/>
	<polygon class="st0" points="278.2,10 278.2,13.1 288,13.1 288,31.8 291.5,31.8 291.5,13.1 301.3,13.1 301.3,10 300.9,10 	"/>
	<polygon class="st0" points="242.2,10 242.2,13.1 252.1,13.1 252.1,31.8 255.6,31.8 255.6,13.1 265.4,13.1 265.4,10 265,10 	"/>
	<polygon class="st0" points="212.6,22.1 228.5,22.1 228.5,18.9 212.6,18.9 212.6,13.1 229.2,13.1 229.2,10 228.8,10 209.2,10 
		209.2,31.8 229.3,31.8 229.3,28.6 212.6,28.6 	"/>
	<path class="st0" d="M85.4,10c0,0-10.6,16.2-11.2,17.2C73.6,26.2,63,10,63,10h-4.7v21.8h3.5V14.3C63,16.2,73,31.8,73,31.8h2.3
		c0,0,10.1-15.6,11.3-17.5v17.5h3.5V10h-0.4H85.4z"/>
	<polygon class="st0" points="148.6,10 145.6,10 145.6,31.8 149,31.8 149,10 	"/>
	<path class="st0" d="M187.9,10v17.8c-1.3-1.3-17.3-17.8-17.3-17.8h-4.5v21.8h3.5V14c1.3,1.3,17.3,17.8,17.3,17.8h4.5V10h-0.4H187.9
		z"/>
	<path class="st0" d="M123.6,24.1h-11.7c0.6-1.1,5.2-9.5,5.8-10.6C118.4,14.6,123,23,123.6,24.1 M119.4,10h-3.5l-12.1,21.8h4
		c0,0,2.2-4,2.4-4.4h15.2c0.2,0.4,2.4,4.4,2.4,4.4h3.9L119.6,10H119.4z"/>
	<path class="st0" d="M40.6,1.4v39.2H1.4V1.4H40.6 M42,0h-1.4H1.4H0v1.4v39.2V42h1.4h39.2H42v-1.4V1.4V0L42,0z"/>
	<path class="st0" d="M39.1,32c-8.3-1.9-6.1-9.7-7.5-15.9c-1.7-10.6-11.7-6.3-11.5-5.4c-3.5-3.1-9.1-0.5-9,0.1l0,0
		c-3.7-3.1-9.5-0.3-8.2-0.1c4.1-0.6,4.9,1.1,5.9,13.9c1.7,10.6,15.7,8.2,12.9,7.7c-8.3-1.9-6.7-10.1-8-16c-0.3-2.2-1.1-3.7-2-4.7
		l0,0c0,0,0,0,0,0c5.3-0.4,4.8,2.3,6.1,13C19.5,35,33,32.6,30.2,32.1c-8.3-1.9-6.1-9.7-7.5-15.9c-0.3-2.2-1.1-3.7-1.9-4.8l0,0
		c5.3-0.4,4.7,2.3,6.1,13C28.4,35,41.9,32.5,39.1,32z"/>
</g>
</svg>
